<svg width="40" height="40" viewBox="0 0 40 40" fill="none" xmlns="http://www.w3.org/2000/svg">
<path fill-rule="evenodd" clip-rule="evenodd" d="M13.0269 28.5078C10.5684 26.4905 9 23.4284 9 20C9 13.9249 13.9249 9 20 9C26.0751 9 31 13.9249 31 20C31 26.0751 26.0751 31 20 31C18.8095 31 17.6631 30.8109 16.5893 30.461C18.3503 27.9659 19.8333 25.2604 21.1937 22.4448C21.7147 21.3664 22.266 20.096 22.6586 19.191L22.6788 19.1447C23.0844 20.432 23.3727 22.0877 23.5358 23.6306L26.7182 23.2941C26.4639 20.889 25.7907 18.6332 25.1951 16.9996C24.8954 16.1774 24.6105 15.5001 24.3989 15.0248C24.293 14.7869 24.2051 14.5989 24.1425 14.4679C24.1111 14.4024 24.0861 14.3511 24.0682 14.3148C24.0583 14.2948 24.0483 14.2748 24.0383 14.2548C24.0364 14.2512 25.3007 16.7408 23.3163 12.8332L21.8935 13.5461L21.8893 13.5482L21.8639 13.5607C21.8401 13.5723 21.8026 13.5905 21.7521 13.6146C21.6511 13.6628 21.4983 13.7345 21.2992 13.8244C20.9007 14.0043 20.3184 14.2562 19.5962 14.5378C18.1471 15.1028 16.2891 15.7923 14.1085 16.2496L14.6349 19.3674C16.5364 18.9687 18.4493 18.3603 19.8687 17.8496C19.4805 18.7479 18.7487 20.0897 18.1657 21.0948C16.8223 23.4109 14.9618 26.0778 13.0269 28.5078ZM6 20C6 12.268 12.268 6 20 6C27.732 6 34 12.268 34 20C34 27.732 27.732 34 20 34C12.268 34 6 27.732 6 20Z" fill="#3366FF"/>
</svg>
