<svg width="160" height="42" viewBox="0 0 160 42" fill="none" xmlns="http://www.w3.org/2000/svg">
<path d="M27.6749 36.1568C25.8626 37.6792 23.9958 38.7848 22.0747 39.4735C20.1898 40.1622 18.0512 40.5065 15.6589 40.5065C13.4841 40.5065 11.4361 40.1259 9.51496 39.3647C7.59384 38.6035 5.92646 37.5524 4.51281 36.2112C3.13541 34.8701 2.02986 33.2933 1.19617 31.4809C0.398722 29.6323 0 27.6749 0 25.6088C0 23.5427 0.380598 21.6035 1.1418 19.7911C1.93924 17.9425 3.00854 16.3476 4.3497 15.0064C5.69085 13.6653 7.26762 12.6141 9.07999 11.8529C10.9286 11.0917 12.9041 10.7111 15.0065 10.7111C17.1088 10.7111 19.048 11.1098 20.8242 11.9073C22.6003 12.7047 24.1227 13.7922 25.3913 15.1696C26.6963 16.547 27.7112 18.2143 28.4361 20.1717C29.1611 22.0928 29.5236 24.1771 29.5236 26.4244V28.5992H9.02562C9.60558 29.9404 10.5118 31.046 11.7442 31.9159C12.9766 32.7496 14.4265 33.1664 16.0939 33.1664C17.29 33.1664 18.3775 32.9852 19.3561 32.6227C20.3348 32.224 21.1685 31.6803 21.8572 30.9916L27.6749 36.1568ZM14.8433 17.8881C13.3934 17.8881 12.1429 18.2868 11.0917 19.0843C10.0405 19.8817 9.29747 21.0054 8.8625 22.4553H20.8785C20.4073 21.0779 19.628 19.9724 18.5406 19.1387C17.4894 18.305 16.257 17.8881 14.8433 17.8881Z" fill="black"/>
<path d="M39.321 39.9628L27.0331 11.2005H36.6024L43.7251 28.8167L50.8477 11.2005H60.1995L47.9116 39.9628H39.321Z" fill="black"/>
<path d="M99.1777 0V39.9628H90.3696V1.90299L99.1777 0Z" fill="black"/>
<path d="M111.342 39.9628L99.0537 11.2005H108.623L115.746 28.8167L122.868 11.2005H132.22L119.932 39.9628H111.342Z" fill="black"/>
<path d="M157.444 36.1568C155.631 37.6792 153.765 38.7848 151.843 39.4735C149.959 40.1622 147.82 40.5065 145.428 40.5065C143.253 40.5065 141.205 40.1259 139.284 39.3647C137.363 38.6035 135.695 37.5524 134.282 36.2112C132.904 34.8701 131.799 33.2933 130.965 31.4809C130.167 29.6323 129.769 27.6749 129.769 25.6088C129.769 23.5427 130.149 21.6035 130.911 19.7911C131.708 17.9425 132.777 16.3476 134.118 15.0064C135.46 13.6653 137.036 12.6141 138.849 11.8529C140.697 11.0917 142.673 10.7111 144.775 10.7111C146.878 10.7111 148.817 11.1098 150.593 11.9073C152.369 12.7047 153.891 13.7922 155.16 15.1696C156.465 16.547 157.48 18.2143 158.205 20.1717C158.93 22.0928 159.292 24.1771 159.292 26.4244V28.5992H138.794C139.374 29.9404 140.281 31.046 141.513 31.9159C142.745 32.7496 144.195 33.1664 145.863 33.1664C147.059 33.1664 148.146 32.9852 149.125 32.6227C150.104 32.224 150.937 31.6803 151.626 30.9916L157.444 36.1568ZM144.612 17.8881C143.162 17.8881 141.912 18.2868 140.86 19.0843C139.809 19.8817 139.066 21.0054 138.631 22.4553H150.647C150.176 21.0779 149.397 19.9724 148.309 19.1387C147.258 18.305 146.026 17.8881 144.612 17.8881Z" fill="black"/>
<path fill-rule="evenodd" clip-rule="evenodd" d="M73 42C81.8366 42 89 34.8366 89 26C89 17.1634 81.8366 10 73 10C64.1634 10 57 17.1634 57 26C57 31.0187 59.3107 35.4977 62.9262 38.4312C64.9053 35.7141 66.7253 32.9662 68.1724 30.4713C69.1105 28.854 70.2881 26.6947 70.9128 25.2494C68.6288 26.0711 65.5506 27.05 62.4907 27.6917L61.6438 22.6746C65.1527 21.9388 68.1424 20.8294 70.4743 19.9201C71.6363 19.467 72.5735 19.0616 73.2147 18.7722C73.535 18.6276 73.7809 18.5122 73.9434 18.4346C74.0247 18.3958 74.085 18.3665 74.1233 18.3478L74.1641 18.3277L74.171 18.3243L74.1716 18.324L76.4605 17.1773L77.6222 19.4648C77.6384 19.4969 77.6544 19.5291 77.6703 19.5613C77.6991 19.6196 77.7394 19.7022 77.7899 19.8077C77.8907 20.0185 78.0321 20.321 78.2026 20.7038C78.5431 21.4686 79.0014 22.5585 79.4837 23.8815C80.4421 26.5102 81.5253 30.1402 81.9346 34.0103L76.8137 34.5518C76.5511 32.069 76.0872 29.4048 75.4346 27.3333L75.4022 27.4078C74.7703 28.8642 73.8833 30.9084 73.0449 32.6436C71.602 35.6299 70.0735 38.5391 68.3877 41.3252C69.8482 41.7641 71.3965 42 73 42Z" fill="white"/>
<path fill-rule="evenodd" clip-rule="evenodd" d="M73 42C81.8366 42 89 34.8366 89 26C89 17.1634 81.8366 10 73 10C64.1634 10 57 17.1634 57 26C57 31.0187 59.3107 35.4977 62.9262 38.4312C64.9053 35.7141 66.7253 32.9662 68.1724 30.4713C69.1105 28.854 70.2881 26.6947 70.9128 25.2494C68.6288 26.0711 65.5506 27.05 62.4907 27.6917L61.6438 22.6746C65.1527 21.9388 68.1424 20.8294 70.4743 19.9201C71.6363 19.467 72.5735 19.0616 73.2147 18.7722C73.535 18.6276 73.7809 18.5122 73.9434 18.4346C74.0247 18.3958 74.085 18.3665 74.1233 18.3478L74.1641 18.3277L74.171 18.3243L74.1716 18.324L76.4605 17.1773L77.6222 19.4648C77.6384 19.4969 77.6544 19.5291 77.6703 19.5613C77.6991 19.6196 77.7394 19.7022 77.7899 19.8077C77.8907 20.0185 78.0321 20.321 78.2026 20.7038C78.5431 21.4686 79.0014 22.5585 79.4837 23.8815C80.4421 26.5102 81.5253 30.1402 81.9346 34.0103L76.8137 34.5518C76.5511 32.069 76.0872 29.4048 75.4346 27.3333L75.4022 27.4078C74.7703 28.8642 73.8833 30.9084 73.0449 32.6436C71.602 35.6299 70.0735 38.5391 68.3877 41.3252C69.8482 41.7641 71.3965 42 73 42Z" fill="url(#paint0_linear)"/>
<path fill-rule="evenodd" clip-rule="evenodd" d="M73 42C81.8366 42 89 34.8366 89 26C89 17.1634 81.8366 10 73 10C64.1634 10 57 17.1634 57 26C57 31.0187 59.3107 35.4977 62.9262 38.4312C64.9053 35.7141 66.7253 32.9662 68.1724 30.4713C69.1105 28.854 70.2881 26.6947 70.9128 25.2494C68.6288 26.0711 65.5506 27.05 62.4907 27.6917L61.6438 22.6746C65.1527 21.9388 68.1424 20.8294 70.4743 19.9201C71.6363 19.467 72.5735 19.0616 73.2147 18.7722C73.535 18.6276 73.7809 18.5122 73.9434 18.4346C74.0247 18.3958 74.085 18.3665 74.1233 18.3478L74.1641 18.3277L74.171 18.3243L74.1716 18.324L76.4605 17.1773L77.6222 19.4648C77.6384 19.4969 77.6544 19.5291 77.6703 19.5613C77.6991 19.6196 77.7394 19.7022 77.7899 19.8077C77.8907 20.0185 78.0321 20.321 78.2026 20.7038C78.5431 21.4686 79.0014 22.5585 79.4837 23.8815C80.4421 26.5102 81.5253 30.1402 81.9346 34.0103L76.8137 34.5518C76.5511 32.069 76.0872 29.4048 75.4346 27.3333L75.4022 27.4078C74.7703 28.8642 73.8833 30.9084 73.0449 32.6436C71.602 35.6299 70.0735 38.5391 68.3877 41.3252C69.8482 41.7641 71.3965 42 73 42Z" fill="url(#paint1_radial)"/>
<defs>
<linearGradient id="paint0_linear" x1="77.9422" y1="24.4122" x2="68.8147" y2="1.51877" gradientUnits="userSpaceOnUse">
<stop stop-color="#3366FF"/>
<stop offset="1" stop-color="#00207F"/>
</linearGradient>
<radialGradient id="paint1_radial" cx="0" cy="0" r="1" gradientUnits="userSpaceOnUse" gradientTransform="translate(65.4291 36.8571) rotate(113.728) scale(28.4009 68.8862)">
<stop stop-color="#39C4FF"/>
<stop offset="1" stop-color="#8A61FF" stop-opacity="0"/>
</radialGradient>
</defs>
</svg>
